<svg xmlns="http://www.w3.org/2000/svg" width="39.455" height="30.677" viewBox="0 0 39.455 30.677">
  <g id="noun_Saving_3721340" transform="translate(-10.273 -14.662)">
    <path id="Path_17" data-name="Path 17" d="M32.9,18.429a.807.807,0,0,0,.3-.055.787.787,0,0,0,.434-1.026l-.884-2.194a.788.788,0,0,0-1.46.592l.876,2.186A.8.8,0,0,0,32.9,18.429Z"/>
    <path id="Path_18" data-name="Path 18" d="M40.843,18.6a.787.787,0,0,0-1.026-.434l-2.194.876a.8.8,0,0,0-.442,1.034.794.794,0,0,0,.734.489.805.805,0,0,0,.3-.055l2.186-.884A.792.792,0,0,0,40.843,18.6Z"/>
    <path id="Path_19" data-name="Path 19" d="M18.63,29.785,16.6,35.459a.79.79,0,0,0,.75,1.049h25.3a.781.781,0,0,0,.742-1.049l-2.02-5.674a.79.79,0,0,0-.742-.529H31.95a.79.79,0,0,0-.742.529L30,33.17l-1.207-3.385a.79.79,0,0,0-.742-.529h-8.68A.79.79,0,0,0,18.63,29.785Z"/>
    <path id="Path_20" data-name="Path 20" d="M37.087,14.776a.785.785,0,0,0-1.034.41l-.931,2.178a.792.792,0,0,0,.418,1.034.859.859,0,0,0,.308.063.788.788,0,0,0,.726-.481l.931-2.17A.789.789,0,0,0,37.087,14.776Z"/>
    <path id="Path_21" data-name="Path 21" d="M24.919,20.955l-2.028,5.674a.806.806,0,0,0,.1.718.779.779,0,0,0,.647.331H36.361a.79.79,0,0,0,.647-.331.8.8,0,0,0,.095-.718l-2.02-5.674a.783.783,0,0,0-.742-.521h-8.68A.783.783,0,0,0,24.919,20.955Z"/>
    <path id="Path_22" data-name="Path 22" d="M40.37,22.935,38.2,22a.8.8,0,0,0-1.042.418.789.789,0,0,0,.418,1.034l2.17.931a.867.867,0,0,0,.316.063.8.8,0,0,0,.726-.481A.789.789,0,0,0,40.37,22.935Z"/>
    <path id="Path_23" data-name="Path 23" d="M10.415,45.007a.8.8,0,0,0,.647.331H48.94a.784.784,0,0,0,.742-1.057l-2.02-5.666a.8.8,0,0,0-.75-.529H38.239a.783.783,0,0,0-.742.529L36.29,41.992l-1.207-3.377a.79.79,0,0,0-.742-.529h-8.68a.79.79,0,0,0-.742.529l-1.207,3.377L22.5,38.615a.79.79,0,0,0-.742-.529h-8.68a.79.79,0,0,0-.742.529l-2.02,5.666A.793.793,0,0,0,10.415,45.007Z"/>
  </g>
</svg>
