<svg xmlns="http://www.w3.org/2000/svg" width="28.939" height="15.193" viewBox="0 0 28.939 15.193">
  <g id="noun_direction_1950156" transform="translate(-4.004 -17.302)">
    <path id="Path_35" data-name="Path 35" d="M4.519,25.793l11.37,6.564a1.034,1.034,0,0,0,1.551-.894V18.335a1.034,1.034,0,0,0-1.551-.894L4.519,24a1.034,1.034,0,0,0,0,1.788Z" transform="translate(0)" fill="#333"/>
    <path id="Path_36" data-name="Path 36" d="M34,18.335V31.462a1.034,1.034,0,0,0,1.551.894l11.37-6.564a1.034,1.034,0,0,0,0-1.788l-11.37-6.564A1.034,1.034,0,0,0,34,18.335Z" transform="translate(-14.493)" fill="#333"/>
  </g>
</svg>
