<svg xmlns="http://www.w3.org/2000/svg" width="28.64" height="28.641" viewBox="0 0 28.64 28.641">
  <g id="noun_world_2194348" transform="translate(-5.071 -5.071)">
    <g id="Group_27" data-name="Group 27" transform="translate(5.071 5.071)">
      <path id="Path_28" data-name="Path 28" d="M21.687,50.155c0-.078-.132-.141-.293-.141a1.028,1.028,0,0,1-.545-.2.3.3,0,0,0-.414,0c-.089.111-.052.2.081.2a.756.756,0,0,1,.414.141.856.856,0,0,0,.464.141C21.556,50.3,21.687,50.232,21.687,50.155Z" transform="translate(-15.217 -34.656)" fill="#333"/>
      <path id="Path_29" data-name="Path 29" d="M24.479,51.316a.749.749,0,0,1-.222-.262l-.2.121-.2.121a3.857,3.857,0,0,0-.808.525h1.435a.182.182,0,0,0,.182-.181A.483.483,0,0,0,24.479,51.316Z" transform="translate(-16.978 -35.534)" fill="#333"/>
      <path id="Path_30" data-name="Path 30" d="M42.011,9.619c.1,0,.154.018.065,0A.1.1,0,0,0,42.011,9.619Z" transform="translate(-29.543 -8.079)" fill="#333"/>
      <path id="Path_31" data-name="Path 31" d="M53.423,30.459v.009a1.336,1.336,0,0,0-.231.546,1.262,1.262,0,0,0,.045.333c.024.072.158.031.3-.091a3.859,3.859,0,0,1,.353-.283.408.408,0,0,0,.1-.3V30.59a1.542,1.542,0,0,0-.181-.363,1.21,1.21,0,0,1-.172-.364l-.01-.121c-.078-.167-.223-.3-.322-.3h-.021c-.021,0-.041.223-.082.283l-.04.061c.066.2.185.5.263.667C53.423,30.449,53.423,30.449,53.423,30.459Z" transform="translate(-36.929 -21.214)" fill="#333"/>
      <path id="Path_32" data-name="Path 32" d="M51.455,32.085l.1-.02a.728.728,0,0,0,.263-.394,1.711,1.711,0,0,0,.061-.5l-.142.081c-.141.081-.283.121-.283.242S51.354,32.1,51.455,32.085Z" transform="translate(-35.77 -22.365)" fill="#333"/>
      <path id="Path_33" data-name="Path 33" d="M73.628,64.569c-.3.392-.587.752-.639.8a4.117,4.117,0,0,0-.351.513l-.04.081-.041.081c.111.155.233.283.271.283a1.117,1.117,0,0,1,.174.02l.041-.02a.218.218,0,0,0,.121-.142.749.749,0,0,0,.1-.282,5.907,5.907,0,0,1,.323-.707l.021-.081c.1-.333.254-.815.344-1.071l-.162.263Z" transform="translate(-49.78 -44.14)" fill="#333"/>
      <path id="Path_34" data-name="Path 34" d="M19.391,5.071a14.32,14.32,0,1,0,14.32,14.32A14.336,14.336,0,0,0,19.391,5.071Zm7.6,2.958a13.768,13.768,0,0,1,1.216.918c-.053.1-.068.17-.017.207.111.081-.121.5-.289.775l-.394-.33a7.663,7.663,0,0,0-.485-1.091C26.944,8.43,26.964,8.193,26.989,8.029Zm-3,9.571.247-.341h.318l.647.22-.04-.485h.283l.566.5H27.02a4.5,4.5,0,0,1-.2.537c-.081.15-.606.3-.606.3h-.728l-.364-.041-.444.282-.439-.2a3.713,3.713,0,0,1-.571-.566c-.04-.121-.646-.2-.767-.243a1.232,1.232,0,0,0-.809,0,1.485,1.485,0,0,1-.566.243c-.363.081.364-.485.566-.543s.283-.427.4-.71.646,0,.646,0h.324a2.026,2.026,0,0,1,.485.444c.121.2-.081.121-.162.265S23.989,17.6,23.989,17.6Zm1.778-1.455a1.356,1.356,0,0,0,.4-.264c.121-.143.363,0,.363,0l.222-.544s.222.4.263.526.485.323.485.323l-.243.24-.647,0s-.283,0-.607,0Zm1.455,2.869a2.293,2.293,0,0,1,.283.547c.08.264.566.706.646,1.1a1.692,1.692,0,0,1,0,.7s-.364-.444-.485-.646a3.513,3.513,0,0,0-.647-.687c-.162-.121-.2-1.011-.2-1.011Zm-9.344-7.429.008-.007.066-.05-.06.047c.028-.022.042-.033-.007,0l-.028.024.016-.012-.017.013h0l-.025.02Zm-12.158,8,.042.037a.413.413,0,0,0-.042.035C5.721,19.631,5.72,19.607,5.72,19.583Zm.01.38a.323.323,0,0,0,.032.021c.283.162,0,.04.283.162l.283.121a.379.379,0,0,1,0-.243c.04-.162.2.121.04-.162s-.08.041-.162-.283l-.081-.324s-.081-.2.041-.2.272.445.272.445a2.225,2.225,0,0,0,.334.566l.121.081a.86.86,0,0,1,.2.323c.04.162-.2.2,0,.323s-.081-.121.2.121.445.2.566.283.162-.242.283,0-.242,0,.121.242.566.365.566.365.04-.243.284,0a1.025,1.025,0,0,0,.525.282.721.721,0,0,0,.243.283c.2.162,0-.081.2.162l.2.242.363.243h.162l.122.2.323.4V23.9s-.2-.284-.2,0,.041.04,0,.283l-.04.242.243.324v.566a2.928,2.928,0,0,0,.363.363c.121.081-.2-.2.121.081l.323.283.445.4v.162s.282-.2.4,0a4.219,4.219,0,0,0,.283.4v.162s.162-.323.243,0a.75.75,0,0,1,0,.485,1.2,1.2,0,0,1,.283.323c.041.121-.081.242,0,.364a3.667,3.667,0,0,1,.2.647l.323.646s-.08.242,0,.363.2.364.2.364a.342.342,0,0,0,0,.526c.283.283.121,0,.283.283a6.3,6.3,0,0,1,.283.566l.526.606.344.258A13.7,13.7,0,0,1,5.73,19.963Zm13.661,13.1a13.649,13.649,0,0,1-3.082-.35h.082l-.4-.808s.081-.242-.04-.364l-.121-.121-.121-.2v-.282s.162-.2,0-.283-.162.162-.162-.081V30.33a1.728,1.728,0,0,0,.283-.282c.081-.121-.041.161.081-.121a4.387,4.387,0,0,0,.2-.647l.283-.242v-.526a.546.546,0,0,1,0-.284,1.242,1.242,0,0,0,0-.4l.243-.162c.121-.081.444-.364.444-.364s-.2-.121,0-.242.324-.243.283-.4.041.243-.04-.162a2.485,2.485,0,0,1-.121-.647c0-.284-.162-.041,0-.284s.4-.707.4-.707a1.933,1.933,0,0,0-.4-.343c-.121-.04-.243-.122-.445-.2s-.767-.282-.767-.282-.283-.121-.4-.162a3.265,3.265,0,0,1-.526-.607,2.751,2.751,0,0,1-.4-.121,1.177,1.177,0,0,1-.566-.282c-.121-.121-.444-.4-.444-.4l-.081-.2s-.122.121-.485.081A1.462,1.462,0,0,1,12.391,22a.939.939,0,0,0-.364.081,4.579,4.579,0,0,0-.444.283l-.283.081-.526-.04-.364-.2-.2-.445a.511.511,0,0,0-.162-.283c-.121-.08-.445-.323-.445-.323l.162-.485s-.162-.2-.323-.121a1.928,1.928,0,0,0-.4.363.312.312,0,0,1-.243.041,1.3,1.3,0,0,1-.526-.323.744.744,0,0,1-.243-.525,3.687,3.687,0,0,1,.243-.647l.687-.485h.4l.445-.2.444.566.364.444s.444-.283.344-.4-.263-.364-.263-.364.2-.323.263-.444.141-.161.3-.4l.323-.485c.081-.122.4-.687.4-.687l.324-.243.283-.363.2-.2h.323l.566-.283h.363l-.323-.4-.2-.243a2.037,2.037,0,0,1,.767-.323s.566-.324.526-.2a6.3,6.3,0,0,1-.485.688l.323.242s.364.081.445-.04a1.311,1.311,0,0,0,.121-.4L15.1,14.7v-.58c0-.2-.081-.727-.2-.646s-.243-.363-.243-.363v-.566l-.444.4s-.323-.041-.283-.162.243-.243.243-.243l-.445-.364s-.485-.323-.566-.2a3.255,3.255,0,0,0-.2.445l-.2.445v.283l-.162.4-.485.485-.243.485s-.08-.606-.08-.727-.526-.606-.526-.606l-.121-.485a1.75,1.75,0,0,0,.162-.445c0-.121.2-.363.364-.525a7.1,7.1,0,0,1,.687-.566c.121-.081.4-.243.4-.243l-.08.687.525-.081-.081-.363.445-.243.242-.647s.243-.566.364-.485a3.338,3.338,0,0,1,.4.445l-.445.889h-.363l-.121.364a1.022,1.022,0,0,1,.364.162,4.337,4.337,0,0,1,.444.444l.485-.363v-.323H15.3l.243-.526-.081-.364a1.285,1.285,0,0,1,.041-.282l.041-.162-.162-.29V9.07l-.243-.444h-.767l-1.254-.607h-.323l-.556-.278a13.637,13.637,0,0,1,3.1-1.409c-.127.09-.2.17-.2.238a1.978,1.978,0,0,0,.192.843.8.8,0,0,0,.414.364l.162-.041c.162-.04.485-.444.565-.565a4,4,0,0,1,.809-.526l.073-.037a1.842,1.842,0,0,0,.225-.01l.025.006.089.021c-.085-.009-.22.106-.3.259l-.273.2-.323.243a1.019,1.019,0,0,0,0,.727l.121.2.121.2a2.136,2.136,0,0,1,.04.284v.121c0,.121-.04.485-.04.606s-.243.768-.243.889a6.765,6.765,0,0,1-.158.849l-.244.162c-.244.162-.038.283,0,.485s-.281.162,0,.4.16,0,.281.243.041.081.283,0l.227-.076c.366-.452.657-.814.649-.81l.019-.015.006-.005.092-.07.1-.076c.526-.4.2-.2.526-.4s-.08-.081.324-.2l.4-.122A2.517,2.517,0,0,0,20.109,10l.041-.121c.04-.121.121-.121,0-.283s-.283.243-.121-.162.087-.4.185-.565-.179.08,0-.364l.178-.445a.284.284,0,0,0-.122-.363l.243-.162a1.186,1.186,0,0,0,.384-.363.332.332,0,0,0-.061-.4l.2-.121c.2-.121.162.086.283-.24a2.681,2.681,0,0,1,.121-.327l.084-.2A13.612,13.612,0,0,1,26.94,7.995a.99.99,0,0,1-.235.228c-.235.162.073.485,0,.647a.691.691,0,0,0,0,.4,6.648,6.648,0,0,0,.741.525,1.215,1.215,0,0,1,.324.33l-.023.033a1.249,1.249,0,0,1-.3.162c-.265.121-.741.363-.741.363s-.493.162-.534,0-.4-.242-.4-.242A1.245,1.245,0,0,0,25.4,10.2a2.09,2.09,0,0,1-.445-.283s-.363-.121-.526.041-.646.284-.727.566-.2.566-.243.727a4.582,4.582,0,0,1-.687.929c-.162.162-.363.485-.243.647s.445.566.566.485l.121-.081.566.4s.465-1,.435-1-.182-.573.015-.694.318-.728.439-.607-.162,1.01-.162,1.01l.687.29s.485-.236.283,0-.566.478-.606.6a7.992,7.992,0,0,1-.656.808h-.515a1.035,1.035,0,0,0-.728,0,6.508,6.508,0,0,0-.849.727v.566s-.4-.243-.485,0a1.1,1.1,0,0,0,0,.544l.162.345s-.079.153-.383.2-.385-.243-.465,0a1.4,1.4,0,0,0,0,.609l-.036.462s.2-.628.157,0,.283.1-.041.628,0,.121-.323.525-.323.569-.566.911-.318.706-.462.807.023.183,0,.344a5.946,5.946,0,0,0,0,.646s.3.607.381.728a3.527,3.527,0,0,0,.283.445l.161.2s.364-.121.485,0l.121.121h.566c.121,0,.2.081.323,0a3.153,3.153,0,0,1,.444-.2l.485.237.4.167c.121.323-.081.727.04.889s.4.566.526.566a.722.722,0,0,1,.314.162v.767l-.192.444-.04.243a1.609,1.609,0,0,0,0,.647c.08.242.125.808.265.929a1.275,1.275,0,0,1,.22.526l.324.688.97-.323a1.05,1.05,0,0,0,.606-.688c.162-.4.178-.848.331-.969a3.565,3.565,0,0,0,.517-.526,4.4,4.4,0,0,0,.566-.849,8.852,8.852,0,0,0-.081-1.172.5.5,0,0,1,.081-.444,7.531,7.531,0,0,0,.768-.889c.081-.162.607-.808.647-.93s.121-.688,0-.607-.606.324-.606.324-.364-.526-.2-.485a2.181,2.181,0,0,0,1.173-.35,6.241,6.241,0,0,0,.848-.822v-.625a1.748,1.748,0,0,0-.323-.183,3.874,3.874,0,0,0-.485-.081l-.324-.283s-.808-.525-.526-.485a12.316,12.316,0,0,1,1.374.485,5.366,5.366,0,0,0,.809,0c.121-.041.808.448.93.547a8.215,8.215,0,0,1,.606.807c.162.223.485.64.485.64l.005.023A13.7,13.7,0,0,1,19.391,33.064Z" transform="translate(-5.071 -5.071)" fill="#333"/>
    </g>
  </g>
</svg>
