<svg xmlns="http://www.w3.org/2000/svg" width="28.806" height="22.671" viewBox="0 0 28.806 22.671">
  <g id="noun_investment_4013540" transform="translate(-14.383 -794.229)">
    <g id="Group_19" data-name="Group 19" transform="translate(14.383 794.23)">
      <g id="Group_18" data-name="Group 18" transform="translate(0 0)">
        <path id="Path_9" data-name="Path 9" d="M3831.64,2283h4.263a.644.644,0,0,1,.64.64v20.9a.644.644,0,0,1-.64.64h-4.263a.645.645,0,0,1-.64-.64v-20.9A.645.645,0,0,1,3831.64,2283Z" transform="translate(-3811.072 -2283)" fill="#333"/>
        <path id="Path_10" data-name="Path 10" d="M3124.64,2704h4.263a.644.644,0,0,1,.641.64v15.81a.645.645,0,0,1-.641.64h-4.263a.645.645,0,0,1-.64-.64v-15.81A.644.644,0,0,1,3124.64,2704Z" transform="translate(-3112.611 -2698.916)" fill="#333"/>
        <path id="Path_11" data-name="Path 11" d="M2417.64,3066h4.264a.644.644,0,0,1,.64.64v11.438a.645.645,0,0,1-.64.64h-4.264a.645.645,0,0,1-.64-.64V3066.64A.644.644,0,0,1,2417.64,3066Z" transform="translate(-2414.15 -3056.543)" fill="#333"/>
        <path id="Path_12" data-name="Path 12" d="M2181.64,4015.764c-.35,0-.64-.4-.64-.881s.29-.883.64-.883h27.525c.351,0,.64.4.64.883s-.29.881-.64.881Z" transform="translate(-2181 -3993.093)" fill="#333"/>
      </g>
    </g>
  </g>
</svg>
