<svg id="noun_Phone_1743303" xmlns="http://www.w3.org/2000/svg" width="22.252" height="19.499" viewBox="0 0 22.252 19.499">
  <g id="Group_30" data-name="Group 30" transform="translate(0 0)">
    <path id="Path_41" data-name="Path 41" d="M56.76,70.566c.758-.758,1.232-1.706.664-2.465-1.138-1.517-3.413-5.783-5.4-3.318-.853,1.043-1.9,2.56-1.9,2.56a1.953,1.953,0,0,0-.758,1.517c.19,6.921,11.756,15.832,18.392,14.41a2.689,2.689,0,0,0,1.422-1.043s1.138-1.327,1.991-2.465c1.9-2.465-2.844-3.7-4.551-4.361-.758-.379-1.612.284-2.18,1.138-1.422,2.275-9.48-3.982-7.679-5.973Zm3.223-5.878c-.474,0-.379-.853.19-.758A12.407,12.407,0,0,1,70.127,71.7a.45.45,0,1,1-.853.284,11.93,11.93,0,0,0-9.291-7.3Zm-.19,3.413c-.569,0-.474-.853.19-.758a8.532,8.532,0,0,1,6.826,5.4c.284.474-.569.758-.758.284a7.833,7.833,0,0,0-6.257-4.93Z" transform="translate(-49.358 -63.922)" fill="#333" fill-rule="evenodd"/>
  </g>
</svg>
