<svg xmlns="http://www.w3.org/2000/svg" width="21.442" height="17.075" viewBox="0 0 21.442 17.075">
  <g id="noun_Number_3270872" transform="translate(-0.516 -1.058)">
    <g id="Group_28" data-name="Group 28" transform="translate(0.516 1.058)">
      <path id="Path_37" data-name="Path 37" d="M2.7,291.708a2.135,2.135,0,0,0,0,4.27H4.834a2.135,2.135,0,1,0,0-4.269Zm7.474,0a2.135,2.135,0,0,0,0,4.27H12.3a2.135,2.135,0,1,0,0-4.269Zm7.466,0a2.135,2.135,0,0,0,0,4.27h2.134a2.135,2.135,0,1,0,0-4.269Zm-14.94,6.4a2.134,2.134,0,1,0,0,4.267H4.834a2.134,2.134,0,1,0,0-4.267Zm7.474,0a2.134,2.134,0,1,0,0,4.267H12.3a2.134,2.134,0,1,0,0-4.267Zm7.466,0a2.134,2.134,0,1,0,0,4.267h2.134a2.134,2.134,0,1,0,0-4.267Zm-14.94,6.4a2.134,2.134,0,1,0,0,4.268H4.834a2.134,2.134,0,1,0,0-4.268Zm7.474,0a2.134,2.134,0,1,0,0,4.268H12.3a2.134,2.134,0,1,0,0-4.268Zm7.466,0a2.134,2.134,0,1,0,0,4.268h2.134a2.134,2.134,0,1,0,0-4.268Z" transform="translate(-0.516 -291.708)" fill="#333"/>
    </g>
  </g>
</svg>
