<svg xmlns="http://www.w3.org/2000/svg" width="24.586" height="31.535" viewBox="0 0 24.586 31.535">
  <g id="noun_Saving_1401490" transform="translate(-6.507 -0.998)">
    <g id="Group_21" data-name="Group 21" transform="translate(6.507 0.998)">
      <path id="Path_15" data-name="Path 15" d="M24.805,12.559a5.755,5.755,0,0,1-.695.279c-.219.078-.5.158-.812.238a15.233,15.233,0,0,1-3.3.36c-.1.006-.231.007-.364.007-.236.007-.531.007-.832.007s-.6,0-.894-.007h-.022c-.093,0-.22,0-.352-.012a14.349,14.349,0,0,1-3.215-.357,6.679,6.679,0,0,1-.882-.261,4.582,4.582,0,0,1-.644-.264C9.651,16.343,6.507,21.016,6.507,24.51a12.293,12.293,0,0,0,24.586,0C31.093,20.992,27.948,16.335,24.805,12.559ZM18.8,23.069a3.552,3.552,0,0,1,.631,7.05v.911a.631.631,0,0,1-1.261,0v-.911a3.555,3.555,0,0,1-2.93-3.489.631.631,0,1,1,1.261,0,2.3,2.3,0,1,0,2.3-2.3,3.552,3.552,0,0,1-.631-7.05v-.911a.631.631,0,0,1,1.261,0v.911a3.555,3.555,0,0,1,2.93,3.489.631.631,0,0,1-1.261,0,2.3,2.3,0,1,0-2.3,2.3Z" transform="translate(-6.507 -5.264)"/>
      <path id="Path_16" data-name="Path 16" d="M15.785,6.926a3.983,3.983,0,0,0,.914.429,5.375,5.375,0,0,0,.744.221,13.076,13.076,0,0,0,3,.328,3.255,3.255,0,0,0,.341.013c.284.006.568.006.864.006s.574,0,.832-.006c.12,0,.24,0,.315-.006a14.058,14.058,0,0,0,3.04-.322c.271-.069.517-.139.732-.214a3.942,3.942,0,0,0,.94-.441.473.473,0,0,0,.088-.069,3.274,3.274,0,0,0,1.476-2.939C29.073,1,26.582,1,25.39,1c-.511,0-1.072.032-1.665.057-1.331.063-2.813.063-4.143,0C18.989,1.029,18.427,1,17.917,1c-1.2,0-3.689,0-3.689,2.926A3.283,3.283,0,0,0,15.785,6.926Z" transform="translate(-9.359 -0.998)"/>
    </g>
  </g>
</svg>
