<svg xmlns="http://www.w3.org/2000/svg" width="1890.216" height="656.896" viewBox="0 0 1890.216 656.896">
  <path id="Path_2" data-name="Path 2" d="M-2250.722,6011.893l-37.632-15.465-6.7-28.869v-82.482l109.288-295.388,14.434-40.726,8.248-16.5,10.31-9.795,10.31-10.31,13.4-5.671,22.682-9.794s14.435-22.683,32.477-5.155c.515,1.546,17.012,0,17.012,0s11.857-12.888,29.9,0c1.031.516,161.355-4.124,161.355-4.124s13.919-16.5,32.993,0h12.888s18.043-14.95,32.993,0c.516.516,16.5-2.578,16.5-2.578s18.043-9.795,28.353,0c0-1.031,19.074,0,19.074,0s211.875-7.732,296.419,2.578c.516,1.031,242.29,12.888,283.016,24.745,1.547.516,109.288,24.745,109.288,24.745l84.028,27.837,52.067,39.694,112.9,108.773s30.415,1.031,34.024,29.384c0-.516,18.043,15.981,18.043,15.981s33.508-.516,35.57,33.508c1.031,1.031,87.121,80.936,87.121,80.936l120.63,135.58v11.856l24.189-37.157-163.034-390.83-363.557-124.583-927.581-78.148-222.745,48.7-167.994,53.1-45.3,387.47,15.856,148.368,29.447,19.254,124.691-7.928Z" transform="translate(2355.762 -5389.938)" fill="#f5f5f5"/>
</svg>
